<svg xmlns="http://www.w3.org/2000/svg" viewBox="0 0 100 100">
  <g stroke="white" stroke-width="2" stroke-linecap="round" fill="none">
    <line x1="50" y1="8" x2="50" y2="92"/>
    <line x1="12" y1="28" x2="88" y2="72"/>
    <line x1="12" y1="72" x2="88" y2="28"/>
    <line x1="50" y1="8" x2="42" y2="20"/>
    <line x1="50" y1="8" x2="58" y2="20"/>
    <line x1="50" y1="92" x2="42" y2="80"/>
    <line x1="50" y1="92" x2="58" y2="80"/>
    <line x1="12" y1="28" x2="24" y2="28"/>
    <line x1="12" y1="28" x2="18" y2="40"/>
    <line x1="88" y1="72" x2="76" y2="72"/>
    <line x1="88" y1="72" x2="82" y2="60"/>
    <line x1="12" y1="72" x2="24" y2="72"/>
    <line x1="12" y1="72" x2="18" y2="60"/>
    <line x1="88" y1="28" x2="76" y2="28"/>
    <line x1="88" y1="28" x2="82" y2="40"/>
  </g>
</svg>